<svg version="1.1" id="Layer_1" xmlns="http://www.w3.org/2000/svg" xmlns:xlink="http://www.w3.org/1999/xlink" x="0px" y="0px"
	 width="100%" viewBox="0 0 100 100" enable-background="new 0 0 100 100" xml:space="preserve">
<path fill="#000000" opacity="1.000000" stroke="none" 
	d="
M62.000000,101.000000 
	C41.333336,101.000000 21.166674,101.000000 1.000008,101.000000 
	C1.000005,67.666679 1.000005,34.333351 1.000003,1.000021 
	C34.333317,1.000014 67.666634,1.000014 100.999969,1.000007 
	C100.999977,34.333313 100.999977,67.666626 100.999985,100.999969 
	C88.166664,101.000000 75.333336,101.000000 62.000000,101.000000 
M76.838623,5.307384 
	C74.360786,5.038204 71.223335,3.698318 70.374962,7.332063 
	C69.747368,10.020181 65.231956,12.948650 70.193703,15.899863 
	C70.298553,15.962224 69.673607,17.840759 69.011543,18.482525 
	C67.565224,19.884495 65.147041,20.708466 64.412224,22.345842 
	C61.337273,29.197718 59.005848,36.386398 55.866287,43.205013 
	C53.873676,47.532654 55.029766,51.632786 57.818756,53.863731 
	C61.095051,56.484482 65.684280,58.888096 70.362999,56.051006 
	C71.933182,55.098877 73.398590,53.629948 74.334671,52.054317 
	C75.852768,49.499046 76.894615,46.660843 78.312630,43.559052 
	C81.654076,49.640049 78.163277,56.844296 69.603706,63.384987 
	C60.732361,60.251556 52.133629,57.214413 43.534897,54.177269 
	C43.118988,54.873985 42.703083,55.570702 42.287174,56.267418 
	C43.387039,57.512928 44.247429,59.323559 45.627304,59.908306 
	C52.404121,62.780083 59.221054,65.637123 66.230164,67.844032 
	C69.316109,68.815674 69.343910,70.691467 68.857979,72.654686 
	C68.538963,73.943535 66.968010,75.678093 65.776497,75.834755 
	C63.449692,76.140701 60.910576,75.789993 58.612469,75.156105 
	C53.874176,73.849136 49.236446,72.177582 43.476440,70.304550 
	C45.145687,73.143028 45.752747,75.600662 47.289101,76.542679 
	C54.178211,80.766731 61.791813,81.857491 69.793770,80.752205 
	C72.057121,80.439583 74.400246,80.704430 76.706779,80.704430 
	C76.720375,81.336220 76.733971,81.968002 76.747566,82.599792 
	C67.969398,82.599792 59.191227,82.599792 50.557709,82.599792 
	C50.495392,87.273941 52.549618,88.183365 56.240826,88.089310 
	C66.391693,87.830666 76.553528,87.984085 86.710846,88.022964 
	C87.820343,88.027206 88.928642,88.347244 90.037506,88.520798 
	C90.001839,89.013863 89.966179,89.506935 89.930511,90.000000 
	C88.404243,90.000000 86.877968,90.000000 85.351692,90.000000 
	C75.693779,90.000000 66.030174,90.192001 56.380749,89.905884 
	C52.498497,89.790787 50.553482,90.921120 50.528290,95.000000 
	C63.181442,95.000000 75.838417,94.773392 88.481934,95.087952 
	C95.666000,95.266685 97.210258,94.629784 94.849594,86.690514 
	C94.397240,85.169144 92.189583,83.542717 90.516693,83.156715 
	C87.943260,82.562920 85.131836,83.000519 81.399681,83.000519 
	C82.701683,81.846687 83.091385,81.252579 83.623131,81.068253 
	C89.477798,79.038765 91.980537,74.806915 90.914436,68.893997 
	C90.035667,64.020058 91.917809,60.090996 93.554138,55.779613 
	C96.929626,46.885963 95.663727,37.558048 89.084282,32.995155 
	C84.606400,29.889706 83.592186,25.821474 81.814423,21.502701 
	C82.488106,21.293646 82.975166,20.967718 83.395332,21.038563 
	C88.962715,21.977251 88.615074,17.038746 89.850777,14.150251 
	C91.288216,10.790195 88.161507,10.260515 85.870094,9.387654 
	C83.022369,8.302878 80.230141,7.072411 76.838623,5.307384 
M7.028132,90.172234 
	C8.992872,91.781464 10.899151,94.690216 12.932171,94.781685 
	C23.394358,95.252357 33.896008,95.187119 44.365082,94.800316 
	C45.960217,94.741371 48.423439,92.213501 48.762859,90.488663 
	C49.220932,88.160851 48.449028,85.308426 47.428875,83.028328 
	C44.937981,77.461021 42.247108,71.949715 39.175762,66.684784 
	C35.945133,61.146801 35.469879,55.381462 36.299423,48.911953 
	C39.915962,49.652718 41.039978,48.377918 39.345413,45.163063 
	C31.297028,45.163063 23.341753,45.163063 15.386477,45.163063 
	C15.087105,45.502872 14.787732,45.842678 14.488359,46.182487 
	C15.761668,47.521870 17.034977,48.861252 18.928959,50.853516 
	C19.748480,56.473980 18.360670,62.682293 15.165082,68.914917 
	C11.831941,75.415825 9.674013,82.519287 7.028132,90.172234 
z"/>
<path fill="#FFFFFF" opacity="1.000000" stroke="none" 
	d="
M77.126282,5.606125 
	C80.230141,7.072411 83.022369,8.302878 85.870094,9.387654 
	C88.161507,10.260515 91.288216,10.790195 89.850777,14.150251 
	C88.615074,17.038746 88.962715,21.977251 83.395332,21.038563 
	C82.975166,20.967718 82.488106,21.293646 81.814423,21.502701 
	C83.592186,25.821474 84.606400,29.889706 89.084282,32.995155 
	C95.663727,37.558048 96.929626,46.885963 93.554138,55.779613 
	C91.917809,60.090996 90.035667,64.020058 90.914436,68.893997 
	C91.980537,74.806915 89.477798,79.038765 83.623131,81.068253 
	C83.091385,81.252579 82.701683,81.846687 81.399681,83.000519 
	C85.131836,83.000519 87.943260,82.562920 90.516693,83.156715 
	C92.189583,83.542717 94.397240,85.169144 94.849594,86.690514 
	C97.210258,94.629784 95.666000,95.266685 88.481934,95.087952 
	C75.838417,94.773392 63.181442,95.000000 50.528290,95.000000 
	C50.553482,90.921120 52.498497,89.790787 56.380749,89.905884 
	C66.030174,90.192001 75.693779,90.000000 85.351692,90.000000 
	C86.877968,90.000000 88.404243,90.000000 89.930511,90.000000 
	C89.966179,89.506935 90.001839,89.013863 90.037506,88.520798 
	C88.928642,88.347244 87.820343,88.027206 86.710846,88.022964 
	C76.553528,87.984085 66.391693,87.830666 56.240826,88.089310 
	C52.549618,88.183365 50.495392,87.273941 50.557709,82.599792 
	C59.191227,82.599792 67.969398,82.599792 76.747566,82.599792 
	C76.733971,81.968002 76.720375,81.336220 76.706779,80.704430 
	C74.400246,80.704430 72.057121,80.439583 69.793770,80.752205 
	C61.791813,81.857491 54.178211,80.766731 47.289101,76.542679 
	C45.752747,75.600662 45.145687,73.143028 43.476440,70.304550 
	C49.236446,72.177582 53.874176,73.849136 58.612469,75.156105 
	C60.910576,75.789993 63.449692,76.140701 65.776497,75.834755 
	C66.968010,75.678093 68.538963,73.943535 68.857979,72.654686 
	C69.343910,70.691467 69.316109,68.815674 66.230164,67.844032 
	C59.221054,65.637123 52.404121,62.780083 45.627304,59.908306 
	C44.247429,59.323559 43.387039,57.512928 42.287174,56.267418 
	C42.703083,55.570702 43.118988,54.873985 43.534897,54.177269 
	C52.133629,57.214413 60.732361,60.251556 69.603706,63.384987 
	C78.163277,56.844296 81.654076,49.640049 78.312630,43.559052 
	C76.894615,46.660843 75.852768,49.499046 74.334671,52.054317 
	C73.398590,53.629948 71.933182,55.098877 70.362999,56.051006 
	C65.684280,58.888096 61.095051,56.484482 57.818756,53.863731 
	C55.029766,51.632786 53.873676,47.532654 55.866287,43.205013 
	C59.005848,36.386398 61.337273,29.197718 64.412224,22.345842 
	C65.147041,20.708466 67.565224,19.884495 69.011543,18.482525 
	C69.673607,17.840759 70.298553,15.962224 70.193703,15.899863 
	C65.231956,12.948650 69.747368,10.020181 70.374962,7.332063 
	C71.223335,3.698318 74.360786,5.038204 77.126282,5.606125 
M67.955528,27.501606 
	C65.933434,32.155128 63.911331,36.808647 61.888725,41.463337 
	C65.295326,42.743393 68.386200,43.904816 71.610405,45.116333 
	C74.090904,39.294575 76.442703,33.774902 78.913162,27.976717 
	C75.639519,26.673220 72.553520,25.444445 69.488213,24.223904 
	C69.000374,25.060198 68.513504,25.894840 67.955528,27.501606 
M85.021675,65.538345 
	C82.267258,62.642410 79.098221,62.012894 75.981186,64.622833 
	C73.721771,66.514671 71.973625,68.858246 73.692734,72.275650 
	C75.693047,76.252045 78.741997,77.844246 82.204689,76.319382 
	C86.716591,74.332481 87.786201,71.105408 85.021675,65.538345 
M89.983757,50.937874 
	C90.035370,40.693764 87.788498,36.507946 81.381828,35.114605 
	C81.050858,36.265636 80.714478,37.435478 80.452400,38.346916 
	C88.728836,44.534805 84.475929,51.567966 81.856224,58.608040 
	C83.352615,58.970577 84.644539,59.283577 86.122643,59.641682 
	C87.364746,56.953033 88.563370,54.358505 89.983757,50.937874 
M68.392921,51.103848 
	C68.595268,50.738670 68.797623,50.373493 68.999977,50.008320 
	C66.080788,48.756310 63.161598,47.504299 59.922626,46.115135 
	C60.884365,51.156166 64.092606,51.855133 68.392921,51.103848 
z"/>
<path fill="#FFFFFF" opacity="1.000000" stroke="none" 
	d="
M7.015209,89.765778 
	C9.674013,82.519287 11.831941,75.415825 15.165082,68.914917 
	C18.360670,62.682293 19.748480,56.473980 18.928959,50.853516 
	C17.034977,48.861252 15.761668,47.521870 14.488359,46.182487 
	C14.787732,45.842678 15.087105,45.502872 15.386477,45.163063 
	C23.341753,45.163063 31.297028,45.163063 39.345413,45.163063 
	C41.039978,48.377918 39.915962,49.652718 36.299423,48.911953 
	C35.469879,55.381462 35.945133,61.146801 39.175762,66.684784 
	C42.247108,71.949715 44.937981,77.461021 47.428875,83.028328 
	C48.449028,85.308426 49.220932,88.160851 48.762859,90.488663 
	C48.423439,92.213501 45.960217,94.741371 44.365082,94.800316 
	C33.896008,95.187119 23.394358,95.252357 12.932171,94.781685 
	C10.899151,94.690216 8.992872,91.781464 7.015209,89.765778 
M19.721443,71.844772 
	C17.105736,77.657700 14.490027,83.470619 11.753469,89.552109 
	C13.335465,90.092766 14.655664,90.918640 15.987581,90.937988 
	C24.297506,91.058701 32.610443,91.044937 40.921520,90.974304 
	C43.830399,90.949577 44.730915,89.543274 43.353512,86.807404 
	C40.751415,81.638985 38.225597,76.432152 35.644703,71.193840 
	C30.569977,71.193840 25.431412,71.193840 19.721443,71.844772 
M31.001120,61.022961 
	C31.001120,57.086479 31.001120,53.149994 31.001120,49.252804 
	C28.407587,49.252804 26.339809,49.252804 24.480442,49.252804 
	C23.940010,55.263226 23.423264,61.010250 22.914873,66.664337 
	C25.824100,66.664337 29.353577,66.664337 33.228222,66.664337 
	C32.363037,64.809746 31.690310,63.367699 31.001120,61.022961 
z"/>
<path fill="#000000" opacity="1.000000" stroke="none" 
	d="
M67.991081,27.115543 
	C68.513504,25.894840 69.000374,25.060198 69.488213,24.223904 
	C72.553520,25.444445 75.639519,26.673220 78.913162,27.976717 
	C76.442703,33.774902 74.090904,39.294575 71.610405,45.116333 
	C68.386200,43.904816 65.295326,42.743393 61.888725,41.463337 
	C63.911331,36.808647 65.933434,32.155128 67.991081,27.115543 
z"/>
<path fill="#000000" opacity="1.000000" stroke="none" 
	d="
M85.310318,65.808510 
	C87.786201,71.105408 86.716591,74.332481 82.204689,76.319382 
	C78.741997,77.844246 75.693047,76.252045 73.692734,72.275650 
	C71.973625,68.858246 73.721771,66.514671 75.981186,64.622833 
	C79.098221,62.012894 82.267258,62.642410 85.310318,65.808510 
z"/>
<path fill="#000000" opacity="1.000000" stroke="none" 
	d="
M89.872879,51.350922 
	C88.563370,54.358505 87.364746,56.953033 86.122643,59.641682 
	C84.644539,59.283577 83.352615,58.970577 81.856224,58.608040 
	C84.475929,51.567966 88.728836,44.534805 80.452400,38.346916 
	C80.714478,37.435478 81.050858,36.265636 81.381828,35.114605 
	C87.788498,36.507946 90.035370,40.693764 89.872879,51.350922 
z"/>
<path fill="#000000" opacity="1.000000" stroke="none" 
	d="
M68.131866,51.382156 
	C64.092606,51.855133 60.884365,51.156166 59.922626,46.115135 
	C63.161598,47.504299 66.080788,48.756310 68.999977,50.008320 
	C68.797623,50.373493 68.595268,50.738670 68.131866,51.382156 
z"/>
<path fill="#000000" opacity="1.000000" stroke="none" 
	d="
M20.007145,71.519302 
	C25.431412,71.193840 30.569977,71.193840 35.644703,71.193840 
	C38.225597,76.432152 40.751415,81.638985 43.353512,86.807404 
	C44.730915,89.543274 43.830399,90.949577 40.921520,90.974304 
	C32.610443,91.044937 24.297506,91.058701 15.987581,90.937988 
	C14.655664,90.918640 13.335465,90.092766 11.753469,89.552109 
	C14.490027,83.470619 17.105736,77.657700 20.007145,71.519302 
M32.178596,79.030083 
	C30.458817,79.757439 28.652214,80.350899 27.109457,81.351257 
	C26.867952,81.507851 27.557634,84.239281 28.286930,84.509064 
	C29.659216,85.016708 32.363556,85.134567 32.735756,84.449005 
	C33.453884,83.126274 32.935432,81.132195 32.178596,79.030083 
z"/>
<path fill="#000000" opacity="1.000000" stroke="none" 
	d="
M31.009352,61.474312 
	C31.690310,63.367699 32.363037,64.809746 33.228222,66.664337 
	C29.353577,66.664337 25.824100,66.664337 22.914873,66.664337 
	C23.423264,61.010250 23.940010,55.263226 24.480442,49.252804 
	C26.339809,49.252804 28.407587,49.252804 31.001120,49.252804 
	C31.001120,53.149994 31.001120,57.086479 31.009352,61.474312 
z"/>
<path fill="#FFFFFF" opacity="1.000000" stroke="none" 
	d="
M32.554131,79.223267 
	C32.935432,81.132195 33.453884,83.126274 32.735756,84.449005 
	C32.363556,85.134567 29.659216,85.016708 28.286930,84.509064 
	C27.557634,84.239281 26.867952,81.507851 27.109457,81.351257 
	C28.652214,80.350899 30.458817,79.757439 32.554131,79.223267 
z"/>
</svg>